<svg id="visual" viewBox="0 0 1920 1080" width="1920" height="1080" xmlns="http://www.w3.org/2000/svg" xmlns:xlink="http://www.w3.org/1999/xlink" version="1.1"><rect x="0" y="0" width="1920" height="1080" fill="#3d92d3"></rect><defs><linearGradient id="grad1_0" x1="43.8%" y1="100%" x2="100%" y2="0%"><stop offset="14.444444444444446%" stop-color="#130d72" stop-opacity="1"></stop><stop offset="85.55555555555554%" stop-color="#130d72" stop-opacity="1"></stop></linearGradient></defs><defs><linearGradient id="grad1_1" x1="43.8%" y1="100%" x2="100%" y2="0%"><stop offset="14.444444444444446%" stop-color="#130d72" stop-opacity="1"></stop><stop offset="85.55555555555554%" stop-color="#0053a9" stop-opacity="1"></stop></linearGradient></defs><defs><linearGradient id="grad1_2" x1="43.8%" y1="100%" x2="100%" y2="0%"><stop offset="14.444444444444446%" stop-color="#3d92d3" stop-opacity="1"></stop><stop offset="85.55555555555554%" stop-color="#0053a9" stop-opacity="1"></stop></linearGradient></defs><defs><linearGradient id="grad2_0" x1="0%" y1="100%" x2="56.3%" y2="0%"><stop offset="14.444444444444446%" stop-color="#130d72" stop-opacity="1"></stop><stop offset="85.55555555555554%" stop-color="#130d72" stop-opacity="1"></stop></linearGradient></defs><defs><linearGradient id="grad2_1" x1="0%" y1="100%" x2="56.3%" y2="0%"><stop offset="14.444444444444446%" stop-color="#0053a9" stop-opacity="1"></stop><stop offset="85.55555555555554%" stop-color="#130d72" stop-opacity="1"></stop></linearGradient></defs><defs><linearGradient id="grad2_2" x1="0%" y1="100%" x2="56.3%" y2="0%"><stop offset="14.444444444444446%" stop-color="#0053a9" stop-opacity="1"></stop><stop offset="85.55555555555554%" stop-color="#3d92d3" stop-opacity="1"></stop></linearGradient></defs><g transform="translate(1920, 1080)"><path d="M-702 0C-642.3 -56.1 -582.6 -112.1 -569.7 -185.1C-556.8 -258.1 -590.8 -347.9 -567.9 -412.6C-545.1 -477.3 -465.4 -516.8 -394.4 -542.9C-323.4 -568.9 -261.1 -581.5 -196.8 -605.8C-132.6 -630.1 -66.3 -666.1 0 -702L0 0Z" fill="#1972bf"></path><path d="M-468 0C-428.2 -37.4 -388.4 -74.8 -379.8 -123.4C-371.2 -172 -393.9 -232 -378.6 -275.1C-363.4 -318.2 -310.3 -344.5 -262.9 -361.9C-215.6 -379.3 -174.1 -387.7 -131.2 -403.9C-88.4 -420.1 -44.2 -444 0 -468L0 0Z" fill="#01328f"></path><path d="M-234 0C-214.1 -18.7 -194.2 -37.4 -189.9 -61.7C-185.6 -86 -196.9 -116 -189.3 -137.5C-181.7 -159.1 -155.1 -172.3 -131.5 -181C-107.8 -189.6 -87 -193.8 -65.6 -201.9C-44.2 -210 -22.1 -222 0 -234L0 0Z" fill="#130d72"></path></g><g transform="translate(0, 0)"><path d="M702 0C670.4 64 638.7 128.1 623.9 202.7C609.1 277.4 611.1 362.7 567.9 412.6C524.7 462.6 436.4 477.3 370.9 510.5C305.4 543.7 262.9 595.5 204.9 630.6C146.9 665.6 73.4 683.8 0 702L0 0Z" fill="#1972bf"></path><path d="M468 0C446.9 42.7 425.8 85.4 415.9 135.1C406.1 184.9 407.4 241.8 378.6 275.1C349.8 308.4 290.9 318.2 247.3 340.3C203.6 362.5 175.2 397 136.6 420.4C97.9 443.7 49 455.9 0 468L0 0Z" fill="#01328f"></path><path d="M234 0C223.5 21.3 212.9 42.7 208 67.6C203 92.5 203.7 120.9 189.3 137.5C174.9 154.2 145.5 159.1 123.6 170.2C101.8 181.2 87.6 198.5 68.3 210.2C49 221.9 24.5 227.9 0 234L0 0Z" fill="#130d72"></path></g></svg>